<svg data-name="Layer 1" xmlns="http://www.w3.org/2000/svg" width="546.11" height="384.45"><path d="M421 100l17-13.6a6.41 6.41 0 0 1 6.53-.89l6.46 2.77a1.44 1.44 0 0 1 .56 2.23 1.53 1.53 0 0 1-.48.39l-5.01 1.1 19.11-5.38a2 2 0 0 1 1.43 3.61L450 98.92a4 4 0 0 1-3.23.22l-5.11-1.82a5.1 5.1 0 0 0-5.56 1.47l-8 9.27z" fill="#374dff"/><path d="M422 98.43l-33.47 26.46-30.75-31.16-17.2 18.14 39.68 35.21.73.64a10.11 10.11 0 0 0 13.79-.39l37.63-37.14z" fill="#ffd435"/><path d="M430.05 107.52l-2.36-2.67-32.91 32.49a10.13 10.13 0 0 1-13.79.39l-.73-.65-34.53-30.63-2.57 2.71-2.58 2.72 39.68 35.2.73.65a10.13 10.13 0 0 0 13.79-.39l37.63-37.15z" fill="#ff5c62" opacity=".1"/><path d="M63.88 382.15c2.33 1.33 5.84 1.45 8 1.32 5.48-.33 10.61-2.6 15.73-4.38a4.92 4.92 0 0 0 3.39-5.94L90 370l-14.5 1-11.75 4.2a3.44 3.44 0 0 0-2.17 3.89 4.36 4.36 0 0 0 2.3 3.06z" fill="#374dff"/><path d="M82.89 355c0 .07-.83 11.2-.83 11.2L75 370.92a1.88 1.88 0 0 0 .68 3.32 18.26 18.26 0 0 0 10.35.21l1.21-.34a3.29 3.29 0 0 0 2.37-2.59l2.19-11.45z" fill="#ffc0d8"/><path d="M91.13 363.34c-2.92-.07-5.8-.22-8.81-.52-.06.78-.11 1.48-.15 2.05a63.87 63.87 0 0 0 8.55.62z" fill="#374dff" opacity=".1"/><path d="M91.76 360.07L82.89 355s-.32 4.52-.57 7.81c3 .3 5.89.45 8.81.52z" fill="#374dff" opacity=".2"/><path d="M164.61 182.08a10 10 0 0 0-13.91 2.56l-28.2 40.91-39.1-9.26a3.85 3.85 0 0 0-.49-.07l-8.35-1.88a8.55 8.55 0 0 0-6.25 1l-3.49 2.09a1.08 1.08 0 0 0 .34 2l2.08 4.83-9.6 4.95a2.62 2.62 0 0 0-.94 3.85l2.41 3.41a2.61 2.61 0 0 0 2.16 1.11l14.33-.08a6.4 6.4 0 0 0 5.39-3l3.62-5.69 39.14 14.66a7.89 7.89 0 0 0 9-2.58l.45-.59 33.67-43.91.29-.41a10 10 0 0 0-2.55-13.9z" fill="#ffc0d8"/><path d="M165.72 183c-14.48 17.17-25.75 36.73-37.9 55.42-15.69-3-30.41-9.73-45.12-14.7-4 10.27-15.08 9.78-23.86 12.38l.27.38a2.61 2.61 0 0 0 2.16 1.11l14.33-.08a6.4 6.4 0 0 0 5.39-3l3.62-5.69 39.14 14.66a7.89 7.89 0 0 0 9-2.58l.45-.59 33.67-43.91.29-.41a10 10 0 0 0-1.44-12.99z" fill="#374dff" opacity=".1"/><path d="M133.82 216.38a1.83 1.83 0 0 0 .12-1.32l-9.32-31.28a1.8 1.8 0 0 0-1.72-1.27h-15.52a1.34 1.34 0 0 0-1.19.73l-.29.59a1.31 1.31 0 0 0-.08 1l9.37 31.45a1.78 1.78 0 0 0 1.71 1.28h15.24a1.79 1.79 0 0 0 1.6-1z" fill="#374dff"/><path d="M169.67 164.69c-4.58-.06-7.7-4.24-9.3-8.15-3.7-9-.87-21 8.54-25.11a22.31 22.31 0 0 1 15.73-.43c12.38 4.19 15.78 18.25 20 29.13 1.85 4.75 3.41 9.71 6.69 13.64 1.7 2 3.88 3.61 5.59 5.64a9.74 9.74 0 0 1 2.61 6.77c-7-.53-14.63-1.38-21.68-1.9l-13.49-1a7.69 7.69 0 0 1-3-.66c-1.76-.93-2.51-3-3.11-5a4.21 4.21 0 0 1-2.45 2.57 12.28 12.28 0 0 1-3.56.74l-8.85 1a12.26 12.26 0 0 1-4.44-.08c-1.07-.29-2.21-1.38-1.66-2.35.37-.65 1.24.26 2 .19 3.4-.31 6.66-3 9-5.52a14.22 14.22 0 0 0 3.56-9.47c-.68-.07-1.61 0-2.18-.01z" fill="#ff5c62"/><path d="M212.81 175.34c-15-3.47-31.09-2.85-46.3.52-2.09 1.92-4.64 3.58-7.28 3.82-.73.07-1.6-.84-2-.19-.55 1 .59 2.06 1.66 2.35a12.26 12.26 0 0 0 4.44.08l8.85-1a12.28 12.28 0 0 0 3.56-.74 4.21 4.21 0 0 0 2.45-2.57c.6 1.93 1.35 4 3.11 5a7.69 7.69 0 0 0 3 .66l13.49 1c7 .52 14.63 1.37 21.68 1.9a9.74 9.74 0 0 0-2.61-6.77c-1.18-1.47-2.67-2.7-4.05-4.06z" fill="#374dff" opacity=".2"/><path d="M208.14 168.69c-12-3.05-25.13-1.44-37.47 1.43a14 14 0 0 1-2.49 4c-.51.57-1.08 1.14-1.67 1.7 15.21-3.37 31.26-4 46.3-.52a19.91 19.91 0 0 1-1.47-1.57 25 25 0 0 1-3.2-5.04z" fill="#374dff" opacity=".1"/><path d="M195.3 139.23a22.89 22.89 0 0 0-6.36-6.16l-.25-.15a21.18 21.18 0 0 0-2.41-1.27c-.53-.23-1.07-.45-1.64-.65a22.31 22.31 0 0 0-15.73.43c-.39.17-.74.37-1.1.56a15.57 15.57 0 0 0-4.72 3.84 16 16 0 0 0-1.2 1.64 16.45 16.45 0 0 0-1.11 2 20.16 20.16 0 0 0-1.73 5.77c-.06.4-.11.79-.14 1.19 6.32-5.27 14.09-6.74 21.6-5.61a37.46 37.46 0 0 1 21 10.93 54 54 0 0 0-6.21-12.52z" fill="#f7faff" opacity=".1"/><path d="M188.94 133.07l-.25-.15a21.18 21.18 0 0 0-2.41-1.27c-.53-.23-1.07-.45-1.64-.65a22.31 22.31 0 0 0-15.73.43c-.39.17-.74.37-1.1.56a15.57 15.57 0 0 0-4.72 3.84 66.09 66.09 0 0 1 8.3-.72c1.72-.05 3.44 0 5.15.07a59 59 0 0 1 18.76 4 22.89 22.89 0 0 0-6.36-6.11z" fill="#f7faff" opacity=".1"/><path d="M299.11 188.45h43.28a1.86 1.86 0 0 0 1.82-1.47l18-81.65A11.79 11.79 0 0 0 350.7 91h-59.12a11.78 11.78 0 0 0-11.53 14.21L297.28 187a1.86 1.86 0 0 0 1.83 1.45z" fill="#ffd435"/><path d="M292.17 162.71l5.11 24.29a1.86 1.86 0 0 0 1.83 1.48h19.33a80.64 80.64 0 0 1-26.27-25.77z" fill="#ff5c62" opacity=".2"/><path d="M285.87 132.87l6.3 29.84a80.64 80.64 0 0 0 26.27 25.74h22c-23.53-11.83-42.98-32.03-54.57-55.58zM362.21 105.33l-.21 1.07-4.51 20.45-15.82 28.25a10.33 10.33 0 0 1-13.43 5.74 10.17 10.17 0 0 1-2.79-1.68l-.73-.62-43.84-49.39s3.2 14 3.19 14l-.29-.25-2.9-13.79a11.77 11.77 0 0 1 10.7-6.85 11.83 11.83 0 0 1 7.91 3l29.56 27.77 23.55-33.42 4.4-6.79a11.79 11.79 0 0 1 5.21 12.51z" fill="#ff5c62" opacity=".1"/><path d="M141.25 369.18l-9.15 8.91a3.71 3.71 0 0 0 2.59 6.36h3.08a10.1 10.1 0 0 0 6.92-2.78l10.42-9.9a5.35 5.35 0 0 0 .94-7l-2-2.54z" fill="#374dff"/><path d="M193.49 268a7.94 7.94 0 0 0-1.21-3c-8.84.25-17.68.31-26.51-.29l-61.63 10.64A9.43 9.43 0 0 0 97 281a9.4 9.4 0 0 0-.73 3.46l-15.91 75.88h11.28l23.85-66.12 73.37.45c12.28.09 7.34-10.95 5.25-23z" fill="#ffd435"/><path d="M196.29 282.32c-29.28 2.28-58.29 3.05-87.83 5.93a1.38 1.38 0 0 1 .36.15 1.38 1.38 0 0 0-.36-.15l-1.64.15 1.64-.15a2.22 2.22 0 0 0-2 .24c-6.82 23.94-17.13 47-20.4 71.85h5.54l23.85-66.12 73.37.45c8.49.07 8.79-5.15 7.47-12.35z" fill="#374dff" opacity=".1"/><path d="M117.36 282.06l67.78 12.23a19.69 19.69 0 0 0 23.19-19.38v-3.65a8 8 0 0 0-8-8H119a9.47 9.47 0 0 0-9.48 9.48 9.47 9.47 0 0 0 7.84 9.32z" fill="#ffd435"/><path d="M110.64 277.13c.38.34 30.3 73.72 30.3 73.72h12.78l-18-76.93z" fill="#ffd435"/><path d="M140.94 350.85c.06 0 4.31 10.48 4.31 10.48l-4 7.85a1.85 1.85 0 0 0 2.07 2.64 18.18 18.18 0 0 0 9-5.11l.89-.92a3.68 3.68 0 0 0 .89-3.55l-3.26-11.39z" fill="#ffc0d8"/><path d="M150.82 350.85h-9.88s.45 1.06 1 2.48c3.22.21 6.51.65 9.79.82z" fill="#374dff" opacity=".2"/><path d="M151.77 354.15c-3.28-.17-6.57-.61-9.79-.82.38.93.82 2 1.25 3.07h9.18z" fill="#374dff" opacity=".1"/><path d="M166.4 261.88l-18.63-67A12.54 12.54 0 0 1 159.85 179h51.45a11.55 11.55 0 0 1 9.32 4.53 11.09 11.09 0 0 1 1.78 9.63l-19.11 68.69a1.86 1.86 0 0 1-1.8 1.37H168.2a1.86 1.86 0 0 1-1.8-1.34z" fill="#374dff"/><path d="M187.82 258.4c8.86-6.07 16-13.44 22.36-21.3l7.1-25.51c-9.15 12.35-18.09 25-28.46 36.81-7.94 9.7-19 1.5-27.67-5.37l2.47 8.86c7.1 6.38 14.48 12.69 24.2 6.51z" fill="#132990" opacity=".15"/><path d="M188.82 248.4c10.37-11.76 19.31-24.46 28.46-36.81l5.12-18.4a11.09 11.09 0 0 0-1.78-9.63c-16.3 18-28.08 42.26-48.76 50.88-5.1 1.85-10-1.25-14.76-6.1l4.05 14.66c8.68 6.9 19.73 15.1 27.67 5.4z" fill="#132990" opacity=".3"/><rect x="348.33" y="55.65" width="15.58" height="23.39" rx="2" ry="2" fill="#2e354f"/><rect x="365.78" y="61.17" width="12.94" height="17.87" rx="2" ry="2" fill="#2e354f"/><rect x="380.59" y="61.17" width="3.74" height="17.87" rx="1.87" ry="1.87" fill="#ff5c62"/><path d="M348 91.7l9.13-16.83a5.68 5.68 0 0 1 6.42-2.8l10.72 2.78a1.44 1.44 0 0 1 .56 2.22 1.38 1.38 0 0 1-.48.39l-4.94 1.17 19.1-5.38a2 2 0 0 1 1.49 3.61l-16.63 8.65a4 4 0 0 1-3.23.22l-6-2.15a2.4 2.4 0 0 0-3.1 1.54L357 97.6z" fill="#374dff"/><path d="M347.72 86.7l-18.67 35.13-29.56-27.77a11.78 11.78 0 1 0-15.81 17.48l.4.35 40.64 35.34.73.62a10.17 10.17 0 0 0 2.79 1.68 10.33 10.33 0 0 0 13.43-5.74l20.27-50.5z" fill="#ffd435"/><path d="M259.19 349.31l-6.85 25a4.64 4.64 0 0 0 4.48 5.75h32.75a2.11 2.11 0 0 0 1.93-1.2l.88-1.84a2.37 2.37 0 0 0-1.46-3.21l-17.3-5.53a5.1 5.1 0 0 1-3.42-6.09l3.5-12.89zM340.32 349.31l-1.43 25c-.16 2.84 2.74 5.75 5.73 5.75h32.75a1.62 1.62 0 0 0 1.67-1.2l.48-1.84a3 3 0 0 0-2.16-3.21l-18.49-5.53c-2.76-.83-4.89-3.55-4.75-6.09l.71-12.89z" fill="#374dff"/><path d="M273.7 349.31h-14.51l-2.67 9.74c5-.37 10-1 15-1.61z" fill="#132990" opacity=".3"/><path d="M271.49 357.44c-5 .62-10 1.24-15 1.61l-1.61 5.87c5.17-1.15 10.24-2 15.31-2.8z" fill="#132990" opacity=".15"/><path d="M354.83 349.31h-14.51l-.6 10.54c4.88-.79 9.76-1.48 14.64-2z" fill="#132990" opacity=".3"/><path d="M354.12 362.2l.24-4.37c-4.88.54-9.76 1.23-14.64 2l-.31 5.33c4.85-1 9.78-1.93 14.72-2.84 0-.03-.01-.08-.01-.12z" fill="#132990" opacity=".15"/><path d="M298.22 189.84l-41.15 162.74a1.48 1.48 0 0 0 1.44 1.85h13.7a1.49 1.49 0 0 0 1.39-.95L321 227.91l17.66 51.78.52 73.29a1.47 1.47 0 0 0 1.48 1.45h13.8a1.48 1.48 0 0 0 1.47-1.32l6.5-68.56a32.56 32.56 0 0 0-.63-11.09l-18.44-83.56a1.87 1.87 0 0 0-1.82-1.45H300a1.87 1.87 0 0 0-1.78 1.39z" fill="#ff5c62"/><path d="M328 188.45h-28a1.87 1.87 0 0 0-1.81 1.39l-41.12 162.74a1.48 1.48 0 0 0 1.44 1.85h6.27c13.51-47.5 24.38-95.47 44-141A84 84 0 0 1 328 188.45zM349.82 278.4c-6-20-16-39-23-59a41.76 41.76 0 0 0-5.65 8.9l17.53 51.39.52 73.29a1.47 1.47 0 0 0 1.48 1.45h7.88c.99-25.34 1.84-50.69 1.24-76.03z" fill="#374dff" opacity=".1"/><path d="M310.46 76.52c-10.38 0-14.63-7.58-14.14-19.24s8.11-21.57 20-22.18 16.82 4.85 16.82 9.58c0 9-16.5 12.66-16.5 12.66s5.14 19.18-6.18 19.18z" fill="#ff5c62"/><path d="M335.79 68.47l-4.33-6.56a.57.57 0 0 1-.11-.33c0-1.6 0-13.42-12.1-13.42-5 0-5.15 9.1-4.67 15.22a1.82 1.82 0 0 1-1.08 1.82 1.78 1.78 0 0 1-2.3-1.07c-.47-1.19-1.67-3.58-3.77-3.58-1.61 0-3.41 1.09-3.41 3.81a4.22 4.22 0 0 0 3.75 4.14c3 .35 2.69 3.57 2.69 3.57v19.44l13.94 9.91 10-10.41h-5.3a4.62 4.62 0 0 1-4.62-4.62v-4.31h1.42a5.63 5.63 0 0 0 5.63-5.62v-5.92h3.13a1.33 1.33 0 0 0 1.13-2.07z" fill="#374dff"/><path d="M315.82 68.4c4-4 1-10 3-14a9.25 9.25 0 0 1 7.57-4.27 12.29 12.29 0 0 0-7.14-2c-5 0-5.15 9.1-4.67 15.22a1.82 1.82 0 0 1-1.08 1.82 1.78 1.78 0 0 1-2.3-1.07c-.47-1.19-1.67-3.58-3.77-3.58-1.61 0-3.41 1.09-3.41 3.81v.17c.42-.45.78-.84.78-1.13 5.02-1.97 6.02 8.03 11.02 5.03z" fill="#132990" opacity=".15"/><path d="M335.79 68.47l-4.33-6.56a.57.57 0 0 1-.11-.33c0-1.19 0-8-5-11.45a9.25 9.25 0 0 0-7.57 4.27c-2 4 1 10-3 14-5 3-6-7-11-5 0 .29-.36.68-.78 1.13a4.21 4.21 0 0 0 3.73 4c3 .35 2.69 3.57 2.69 3.57v19.41l13.94 9.91 10-10.41h-5.3a4.62 4.62 0 0 1-4.62-4.62v-4.31h1.42a5.63 5.63 0 0 0 5.63-5.62v-5.92h3.13a1.33 1.33 0 0 0 1.17-2.07z" fill="#374dff"/><path d="M329.12 91a4.62 4.62 0 0 1-4.62-4.62v-4c-1.39 0-3.29-.23-5-.35-.02 6.44 4.5 11.68 10.5 13.63l4.42-4.66z" fill="#132990" opacity=".3"/><path d="M319.54 82c-2-.14-3.72-.18-3.72.36-3.05 7.62 4.37 13.5 12.05 15.42l2.13-2.12c-6-1.95-10.52-7.19-10.46-13.66z" fill="#132990" opacity=".15"/><path d="M408.05 235.75l-25.65 44.44a2 2 0 0 0 1.73 3h51.31a2 2 0 0 0 1.74-3l-25.66-44.44a2 2 0 0 0-3.47 0z" fill="#ffc0d8"/><path d="M423.66 283.19c-8.39-10.76-16.18-22-23.68-33.45l-5.22 9c5.36 8.32 11 16.48 16.89 24.41z" fill="#ff5c62" opacity=".1"/><path d="M394.76 258.78l-12.36 21.41a2 2 0 0 0 1.73 3h27.52c-5.9-7.93-11.53-16.09-16.89-24.41z" fill="#ff5c62" opacity=".2"/><path d="M456 208.23l9.37-16.23a2 2 0 0 0-1.73-3h-18.79a2 2 0 0 0-1.73 3l9.39 16.27a2 2 0 0 0 3.49-.04z" fill="#ff5c62"/><path d="M465.37 192a2 2 0 0 0-1.73-3h-5.33q2.44 3.4 4.83 6.86z" fill="#f7faff" opacity=".2"/><path d="M463.14 195.82q-2.38-3.45-4.83-6.86H451c3 4.11 6 8.16 9.08 12.17z" fill="#f7faff" opacity=".1"/><path d="M497.85 132.19l-19.75 34.2a2 2 0 0 0 1.73 3h39.49a2 2 0 0 0 1.74-3l-19.75-34.2a2 2 0 0 0-3.46 0z" fill="#ffd435"/><path d="M519.32 169.39a2 2 0 0 0 1.74-3l-19.75-34.2a2 2 0 0 0-3.46 0l-3.85 6.67c5.44 10.33 11.17 20.48 17 30.53z" fill="#f7faff" opacity=".2"/><path d="M511 169.39c-5.87-10-11.6-20.2-17-30.53l-4.15 7.19c4.35 7.88 9 15.6 13.54 23.34z" fill="#f7faff" opacity=".1"/><path d="M459.11 35.19L477.7 3a2 2 0 0 0-1.7-3h-37.2a2 2 0 0 0-1.74 3l18.59 32.19a2 2 0 0 0 3.46 0z" fill="#ff5c62"/><path d="M480.24 44.78l-7 12a2 2 0 0 0 1.73 3h13.92a2 2 0 0 0 1.73-3l-7-12a2 2 0 0 0-3.38 0z" fill="#374dff"/><path d="M447.61 63.6l-3.86 6.69a2 2 0 0 0 1.73 3h7.73a2 2 0 0 0 1.73-3l-3.86-6.69a2 2 0 0 0-3.47 0z" fill="#ffd435"/><path d="M424.85 58.7l10.33-17.9a2 2 0 0 0-1.73-3h-20.67a2 2 0 0 0-1.73 3l10.33 17.9a2 2 0 0 0 3.47 0z" fill="#ffc0d8"/><path d="M438.8 0a2 2 0 0 0-1.74 3l18.59 32.19a2 2 0 0 0 3.46 0l4.41-7.64c-6.08-9.16-12.14-18.21-17.6-27.55z" fill="#374dff" opacity=".1"/><path d="M478.5 47.8l-5.22 9a2 2 0 0 0 1.73 3h12.92c-2.93-4.19-6.22-8.06-9.43-12z" fill="#132990" opacity=".3"/><path d="M446.51 65.51l-2.76 4.78a2 2 0 0 0 1.73 3h7c-2.06-2.53-4.12-5.1-5.97-7.78z" fill="#ff5c62" opacity=".2"/><path d="M412.78 37.8a2 2 0 0 0-1.73 3l10.33 17.9a2 2 0 0 0 3.47 0l3-5.18A125.69 125.69 0 0 1 417.4 37.8z" fill="#ff5c62" opacity=".1"/><path d="M460 264.06h-48.49a1.72 1.72 0 0 0-1.72 1.72v112.57a1.72 1.72 0 0 0 1.72 1.72H460a1.72 1.72 0 0 0 1.72-1.72V265.78a1.72 1.72 0 0 0-1.72-1.72zm-35.8 78.52a7.75 7.75 0 1 1 7.75-7.75 7.75 7.75 0 0 1-7.76 7.75zm0-25.82a7.75 7.75 0 1 1 7.75-7.75 7.75 7.75 0 0 1-7.76 7.75zm0-25.82a7.75 7.75 0 1 1 7.75-7.75 7.75 7.75 0 0 1-7.76 7.75z" fill="#374dff"/><path d="M426.1 316.51a7.52 7.52 0 0 1-1.91.25 7.75 7.75 0 0 1-6-12.66q-4.29-6.9-8.4-14v88.2a1.72 1.72 0 0 0 1.72 1.72H460a1.72 1.72 0 0 0 1.72-1.72v-10.74c-12.28-16.75-24.3-33.66-35.62-51.05zm-1.91 26.07a7.75 7.75 0 1 1 7.75-7.75 7.75 7.75 0 0 1-7.75 7.75z" fill="#132990" opacity=".3"/><path d="M424.19 301.26a7.74 7.74 0 0 1 1.91 15.25c11.32 17.39 23.34 34.3 35.61 51.05V342.8c-11.78-17.25-23.41-34.75-34.31-52.56a7.74 7.74 0 0 1-7.9-13.24q-3.76-6.45-7.38-13h-.61a1.72 1.72 0 0 0-1.72 1.72v24.37q4.11 7 8.4 14a7.75 7.75 0 0 1 6-2.83z" fill="#132990" opacity=".15"/><rect x="441.41" y="351.31" width="28.76" height="28.76" rx="2" ry="2" fill="#ffd435"/><path d="M441.41 353.35v24.72a2 2 0 0 0 2 2h23.75q-13.34-13.07-25.75-26.72z" fill="#ff5c62" opacity=".1"/><rect x="441.41" y="234.47" width="28.76" height="43.96" rx="2" ry="2" fill="#ffd435"/><path d="M441.41 276.44a2 2 0 0 0 2 2h19c-7.08-8.64-13.9-17.57-21-26.35z" fill="#ff5c62" opacity=".2"/><path d="M470 277.22l-28.59-36.09v11c7.15 8.78 14 17.71 21 26.35h5.71a2 2 0 0 0 1.88-1.26z" fill="#ff5c62" opacity=".1"/><path d="M508.21 294.47a37.9 37.9 0 0 0-37.91 37.9V334c0 .9.73.81 1.64.81h72.54c.9 0 1.63.09 1.63-.81v-1.64a37.9 37.9 0 0 0-37.9-37.89z" fill="#ffc0d8"/><path d="M537.51 220.92a26.86 26.86 0 0 0-26.86-26.86h-1.16c-.64 0-.58.52-.58 1.16v51.41c0 .64-.06 1.16.58 1.16h1.16a26.86 26.86 0 0 0 26.86-26.87z" fill="#374dff"/><path d="M508.91 231.47v15.16c0 .64-.06 1.16.58 1.16h1.16a26.62 26.62 0 0 0 10.43-2.11q-6.18-7.02-12.17-14.21z" fill="#132990" opacity=".3"/><path d="M531.39 238c-7.64-8.34-15.24-16.76-22.48-25.49v19q6 7.2 12.17 14.21a26.83 26.83 0 0 0 10.31-7.72z" fill="#132990" opacity=".15"/><rect x="500.62" y="314.65" width="15.18" height="65.43" rx="2" ry="2" fill="#ffd435"/><path d="M346.39 61.53v-6.05a1.87 1.87 0 0 0-1.87-1.87h-6a1.87 1.87 0 0 0-1.32 3.19l6.05 6.05a1.87 1.87 0 0 0 3.14-1.32z" fill="#ff5c62"/><path d="M216.63 181.92a10 10 0 0 0-13.83 3l-27.06 41.8-38.23-22-1.74-6.36a8.13 8.13 0 0 0-3.64-4.83l-3.34-2a1 1 0 0 0-1.53 1.18l1.07 3.57a1.52 1.52 0 0 1-2.33 1.62l-10.39-7.23a2.51 2.51 0 0 0-3.69.93l-1.16 2.3a2.53 2.53 0 0 0 0 2.32l6.49 12.1a6.21 6.21 0 0 0 5 3.23l8.29 1a4.92 4.92 0 0 0 .67.62l42.59 32.21.16.12a8.07 8.07 0 0 0 11.26-1.84l.43-.6 33.69-46.87c.09-.12.19-.28.27-.4a10 10 0 0 0-2.98-13.87z" fill="#ffc0d8"/><path d="M218.36 183.35a14.52 14.52 0 0 1-2.54 10.05 458.73 458.73 0 0 1-33 44c-3 3-6 2-9 0-15-8-28-20-42-29-5.7 0-10.74 0-15.65-2.17l1.11 2.09a6.21 6.21 0 0 0 5 3.23l8.29 1a4.92 4.92 0 0 0 .67.62l42.59 32.21.16.12a8.07 8.07 0 0 0 11.26-1.84l.43-.6 33.69-46.87c.09-.12.19-.28.27-.4a10 10 0 0 0-1.28-12.44z" fill="#374dff" opacity=".1"/><path d="M51.4 215.27H29.05a2 2 0 0 0-2 2V232.82a12.7 12.7 0 0 0 12.69 12.41h1a12.69 12.69 0 0 0 12.7-12.7v-15.26a2 2 0 0 0-2.04-2z" fill="#374dff"/><path d="M51.4 215.27h-4.24c.71 9.16 1.63 18.55-6.34 24.13a10.6 10.6 0 0 1-11.66.13 12.65 12.65 0 0 0 10.59 5.7h1a12.69 12.69 0 0 0 12.7-12.7v-15.26a2 2 0 0 0-2.05-2z" fill="#132990" opacity=".2"/><path d="M47.16 215.27H42a23.14 23.14 0 0 1-1.18 12.13c-1.76 4.39-8.16 8-13.76 5.42a12.56 12.56 0 0 0 2.1 6.71 10.6 10.6 0 0 0 11.66-.13c7.97-5.58 7.05-14.97 6.34-24.13z" fill="#132990" opacity=".1"/><path d="M58.14 215.27h.55a9.46 9.46 0 0 1 9.46 9.46 9.46 9.46 0 0 1-9.46 9.46h-.55a1.87 1.87 0 0 1-1.87-1.87v-15.18a1.87 1.87 0 0 1 1.87-1.87z" fill="#ffd435"/><path d="M24.42 157.69a7.68 7.68 0 0 0-7.69 7.68 7.69 7.69 0 0 0 7.69 7.69 1.51 1.51 0 0 0 1.51-1.52V159.2a1.51 1.51 0 0 0-1.51-1.51z" fill="#ff5c62"/><path d="M32.51 151.75a5.23 5.23 0 0 0 5.23-5.23 5.23 5.23 0 0 0-5.23-5.23 1 1 0 0 0-1 1v8.39a1 1 0 0 0 1 1.07z" fill="#374dff"/><circle cx="36.27" cy="201.18" r="5.34" fill="#ffd435"/><circle cx="46.84" cy="180.74" r="10.37" fill="#ffc0d8"/><path d="M167.17 38.75l-9.56 16.55a2 2 0 0 0 1.74 3h19.1a2 2 0 0 0 1.74-3l-9.56-16.55a2 2 0 0 0-3.46 0z" fill="#ff5c62"/><path d="M228.52 86.66l-6.29 10.88a2 2 0 0 0 1.74 3h12.57a2 2 0 0 0 1.73-3L232 86.66a2 2 0 0 0-3.48 0z" fill="#ffd435"/><path d="M29.78 36.55L33 31a2 2 0 0 0-1.73-3h-6.41a2 2 0 0 0-1.74 3l3.2 5.53a2 2 0 0 0 3.46.02z" fill="#374dff"/><path d="M71.13 98.6L89.37 67a2 2 0 0 0-1.73-3H51.15a2 2 0 0 0-1.73 3l18.24 31.6a2 2 0 0 0 3.47 0z" fill="#ffc0d8"/><path d="M97.37 133.31l-11.65 20.2a2 2 0 0 0 1.73 3h23.31a2 2 0 0 0 1.74-3l-11.66-20.2a2 2 0 0 0-3.47 0z" fill="#ffd435"/><path d="M162.65 46.57l-5 8.73a2 2 0 0 0 1.74 3h9.82c-2.21-3.89-4.44-7.79-6.56-11.73z" fill="#374dff" opacity=".1"/><path d="M226.16 90.74l-3.93 6.8a2 2 0 0 0 1.74 3h7.68c-1.94-3.2-3.76-6.47-5.49-9.8z" fill="#ff5c62" opacity=".1"/><path d="M25.81 28h-.95a2 2 0 0 0-1.74 3l3.2 5.53a2 2 0 0 0 3.46 0l.79-1.38q-2.4-3.54-4.76-7.15z" fill="#132990" opacity=".3"/><path d="M135.18 129.33l5.22-9a2 2 0 0 0-1.73-3h-10.44a2 2 0 0 0-1.74 3l5.22 9a2 2 0 0 0 3.47 0z" fill="#ff5c62"/><path d="M134.81 126.25c-1.91-2.93-4.12-5.87-6-9h-.55a2 2 0 0 0-1.74 3l5.22 9a2 2 0 0 0 3.47 0l.76-1.32c-.4-.51-.78-1.09-1.16-1.68z" fill="#374dff" opacity=".1"/><path d="M58.29 64h-7.14a2 2 0 0 0-1.73 3l18.24 31.6a2 2 0 0 0 3.47 0L75.5 91q-9.04-13.21-17.21-27zM92.93 141l-7.21 12.5a2 2 0 0 0 1.73 3h14.16c-3.07-5.04-5.89-10.25-8.68-15.5z" fill="#ff5c62" opacity=".1"/><path d="M188 152.74c-3.12-.66-5.65-2.88-7.83-5.2-.31-.33-.61-.67-.91-1-3.85 3.05-9.34 3.62-14.12 2.35v13.21a9.35 9.35 0 0 0 9.35 9.35v2a5.59 5.59 0 0 1-5.59 5.59h-3.76l5.84 15.87a1.87 1.87 0 0 0 3.29.41l9.27-13.45a6.53 6.53 0 0 1 5.37-2.83v-26.17a5.7 5.7 0 0 1-.91-.13z" fill="#ffc0d8"/><path d="M184.82 171.4c-1.44 8.67-7.59 16.29-15.79 18.35L165.09 179h3.76a5.59 5.59 0 0 0 5.59-5.59v-2h-1z" fill="#374dff" opacity=".1"/><path d="M180.48 171.4h-7 1v2a5.59 5.59 0 0 1-5.59 5.59h-3.76l1.95 5.29a17.51 17.51 0 0 0 13.4-12.88zM178.82 150.4c2.8 3.73 5.61 4.85 10 5v-2.51a5.7 5.7 0 0 1-.91-.13c-3.12-.66-5.65-2.88-7.83-5.2-.31-.33-.61-.67-.91-1-3.85 3.05-9.34 3.62-14.12 2.35v3.58c4.52 1.56 9.51.51 13.77-2.09z" fill="#374dff" opacity=".1"/><rect y="247.1" width="138.14" height="7.72" rx="2" ry="2" fill="#ff5c62"/><path d="M56.42 328v-67.88a1.86 1.86 0 0 1 1.86-1.87h17.17a1.86 1.86 0 0 1 1.81 2.32l-17.17 67.88a1.86 1.86 0 0 1-3.67-.45z" fill="#374dff"/><path d="M235.87 203.65v89.53a2.47 2.47 0 0 1-2.47 2.46h-22.64a2.46 2.46 0 0 1-2.39-3.07L231 203a2.46 2.46 0 0 1 4.87.65z" fill="#ff5c62"/><circle cx="46.9" cy="323.23" r="5.7" fill="#ff5c62"/><rect x="42.14" y="332.79" width="9.52" height="38.69" rx="2" ry="2" fill="#ffd435"/><circle cx="203.65" cy="329.35" r="5.7" fill="#ff5c62"/><rect x="185.51" y="324.59" width="9.52" height="41.62" rx="2" ry="2" fill="#ffd435"/><path d="M48.09 380.07a.93.93 0 0 0 .61-1.64 33.84 33.84 0 0 0-43.7 0 .93.93 0 0 0 .61 1.64zM211.51 380.07a.93.93 0 0 0 .61-1.64 33.84 33.84 0 0 0-43.7 0 .93.93 0 0 0 .61 1.64z" fill="#ffc0d8"/><path d="M161.84 299.05a1.88 1.88 0 0 0-1.6 2.84 37.73 37.73 0 0 0 65.28 0 1.88 1.88 0 0 0-1.61-2.84z" fill="#374dff"/><path fill="none" stroke="#fff" stroke-linejoin="round" d="M324.48 60.6H314.4"/><ellipse cx="326.64" cy="61.53" rx="2.16" ry="5.68" fill="none" stroke="#fff" stroke-linecap="round" stroke-linejoin="round"/><rect x="348.33" y="44.89" width="6.13" height="8.72" rx="2" ry="2" fill="#2e354f"/><path d="M367.46 36.76a5 5 0 0 1-5-5 1 1 0 0 0-1-1 1 1 0 0 0-1 1 5 5 0 0 1-5 5 1 1 0 0 0-1 1 1 1 0 0 0 1 1 5 5 0 0 1 5 5 1 1 0 0 0 1 1 1 1 0 0 0 1-1 5 5 0 0 1 5-5 1 1 0 0 0 1-1 1 1 0 0 0-1-1zM376.61 42.28a3.08 3.08 0 0 1-3.08-3.08.62.62 0 0 0-.62-.62.61.61 0 0 0-.61.62 3.08 3.08 0 0 1-3.08 3.08.61.61 0 0 0-.62.61.62.62 0 0 0 .62.62 3.08 3.08 0 0 1 3.08 3.08.61.61 0 0 0 .61.61.61.61 0 0 0 .62-.61 3.08 3.08 0 0 1 3.08-3.08.61.61 0 0 0 .61-.62.61.61 0 0 0-.61-.61zM102.8 179a3.08 3.08 0 0 1-3.08-3.08.61.61 0 0 0-.61-.61.61.61 0 0 0-.62.61 3.08 3.08 0 0 1-3.08 3.08.61.61 0 0 0-.61.62.61.61 0 0 0 .61.61 3.08 3.08 0 0 1 3.08 3.08.62.62 0 0 0 .62.62.61.61 0 0 0 .61-.62 3.08 3.08 0 0 1 3.08-3.08.61.61 0 0 0 .62-.61.62.62 0 0 0-.62-.62z" fill="#ffd435"/><ellipse cx="109.51" cy="186.98" rx="1.15" ry="1.56" transform="rotate(-22.97 109.508 186.965)" fill="#f7faff"/></svg>