<svg xmlns="http://www.w3.org/2000/svg" viewBox="0 0 3114 1200"><defs><style>.d41ac222-b203-4b5e-9b45-5f782d7617e3{fill:none;}.\31 9e47d1b-874a-4765-8169-0be541ffefbf{fill:#2935ff;}.b40ed27e-5306-4788-afdb-a0fb16df4caa{fill:#ffb6d5;}.\33 5ec4a93-778b-45b9-8907-b9a3f755e535{fill:#ffce00;}.\32 b6e2c3b-d0d9-4914-bd79-b02977813e6a{fill:#ff1c3f;}</style></defs><title>logo</title><g id="0088b0d2-dfdc-48c0-97f3-bc299cea0d53" data-name="Layer 1"><path class="d41ac222-b203-4b5e-9b45-5f782d7617e3" d="M11.25,1200.77V830.66h0V374.79h0V.77H3103.41v374h0V830.66h0v370.11Z"/><path class="19e47d1b-874a-4765-8169-0be541ffefbf" d="M1338,411.83h-73.58v96.85H1204v61.63h60.37V818.7H1338V570.31h59.74V508.68H1338Zm242.73,87.42c-94.33,0-156,67.28-156,164.76,0,98.1,62.89,162.86,154.69,162.86,64.16,0,118.24-32.06,141.5-86.78l-62.24-24.53c-13.85,28.94-40.25,47.17-79.26,47.17-41.49,0-79.23-20.75-84.26-71.69h237.71V663.38C1732.87,564,1672.5,499.25,1580.69,499.25Zm-84.27,139.6c6.29-50.31,37.1-77.35,82.37-77.35,44.66,0,75.48,25.15,78.63,77.35Zm465.06-130.17-66.65,106.9c-23.28-37.1-47.18-74.83-70.43-106.9h-88.06l111.31,157.83L1739.49,818.7h84.28l65.39-103.14c20.12,32.08,46.54,73.58,67.91,103.14h87.42L1937,665.88l110-157.2ZM2350.07,354c-26.41,0-46.53,20.75-46.53,47.16s20.12,47.17,46.53,47.17a47.17,47.17,0,0,0,0-94.33ZM2200.4,411.83h-73v96.85h-60.37v61.63h60.37V818.7h73V570.31h111.94V818.7h74.19v-310H2200.4ZM2468.27,818.7h74.21V351.46h-74.21Zm441.45-155.32c0-99.36-60.37-164.13-152.18-164.13-94.32,0-155.95,67.28-155.95,164.76,0,98.1,62.89,162.86,154.69,162.86,64.15,0,118.23-32.06,141.49-86.78l-62.24-24.53c-13.85,28.94-40.25,47.17-79.25,47.17C2714.79,762.73,2677,742,2672,691h237.7Zm-236.44-24.53c6.28-50.31,37.1-77.35,82.37-77.35,44.65,0,75.47,25.15,78.62,77.35Z"/></g><g id="90cf3fc0-7074-4a42-aa07-cc407b6d54c3" data-name="Layer 2"><rect class="b40ed27e-5306-4788-afdb-a0fb16df4caa" x="204.94" y="194.72" width="812.41" height="812.41"/><path class="35ec4a93-778b-45b9-8907-b9a3f755e535" d="M437.28,774.71H669.39L437.28,542.59ZM785.45,658.65V890.77l232.12-232.12ZM553.33,310.48l-116.05,116H553.33Z"/><path class="b40ed27e-5306-4788-afdb-a0fb16df4caa" d="M321.22,774.71V890.77H437.28V774.71ZM437.28,890.77H553.33L669.39,774.71H553.33ZM785.45,542.59H669.39V658.65H785.45Zm0,348.18V774.71L669.39,658.65V774.71ZM669.39,426.53v-116H553.33v116Zm-116.06-116H437.28l-116.06,116H437.28Z"/><path class="19e47d1b-874a-4765-8169-0be541ffefbf" d="M437.28,1006.83,553.33,890.77H321.22Zm0-464.24L205.16,774.71H437.28Zm580.29,116.06L785.45,426.53V658.65ZM553.33,194.42,437.28,310.48H669.39Zm0,464.23L669.39,774.71V542.59L785.45,426.53H553.33Z"/><path class="2b6e2c3b-d0d9-4914-bd79-b02977813e6a" d="M437.28,890.77,553.33,774.71H437.28Zm-116.06,0V774.71H205.16ZM785.45,774.71V658.65H669.39ZM669.39,542.59H785.45V426.53Zm0-116.06H785.45l-116.06-116ZM553.33,658.65V426.53H321.22Z"/></g></svg>