<svg id="fd7dfeaf-cf62-421c-a472-dbb114f8097b" data-name="Layer 1" xmlns="http://www.w3.org/2000/svg" viewBox="0 0 1200 1344"><defs><style>.\38 dccdb98-3500-49eb-9b13-d0522037061a{fill:#ffce00;}.\31 528add7-b453-428a-9ce1-a46bae98009a{fill:#ffb6d5;}.\38 7ac494a-9289-4779-9d16-5d2b87e4c57c{fill:#2935ff;}.\37 17e6847-8197-41b3-8b37-19b526b14fac{fill:#ff1c3f;}</style></defs><title>Textile_Logo_Vertical_1200px</title><path class="8dccdb98-3500-49eb-9b13-d0522037061a" d="M441.26,636H652L441.26,425.29ZM757.39,530.67V741.42L968.14,530.67ZM546.64,214.54,441.26,319.91H546.64Z"/><path class="1528add7-b453-428a-9ce1-a46bae98009a" d="M335.89,636V741.42H441.26V636ZM441.26,741.42H546.64L652,636H546.64ZM757.39,425.29H652V530.67H757.39Zm0,316.13V636L652,530.67V636ZM652,319.91V214.54H546.64V319.91ZM546.64,214.54H441.26L335.89,319.91H441.26Z"/><path class="87ac494a-9289-4779-9d16-5d2b87e4c57c" d="M441.26,846.8,546.64,741.42H335.89Zm0-421.51L230.51,636H441.26ZM968.14,530.67,757.39,319.91V530.67ZM546.64,109.16,441.26,214.54H652Zm0,421.51L652,636V425.29L757.39,319.91H546.64Z"/><path class="717e6847-8197-41b3-8b37-19b526b14fac" d="M441.26,741.42,546.64,636H441.26Zm-105.37,0V636H230.51ZM757.39,636V530.67H652ZM652,425.29H757.39V319.91Zm0-105.38H757.39L652,214.54ZM546.64,530.67V319.91H335.89Z"/><path class="87ac494a-9289-4779-9d16-5d2b87e4c57c" d="M184.06,993.38h-42.5v55.94H106.69v35.6h34.87v143.47h42.5V1084.92h34.51v-35.6H184.06Zm140.21,50.49c-54.48,0-90.08,38.86-90.08,95.17,0,56.67,36.32,94.07,89.35,94.07,37.06,0,68.3-18.51,81.73-50.12l-35.95-14.17c-8,16.72-23.25,27.25-45.78,27.25-24,0-45.77-12-48.67-41.41H412.18v-16C412.18,1081.29,377.31,1043.87,324.27,1043.87Zm-48.67,80.64c3.63-29.06,21.43-44.68,47.58-44.68,25.79,0,43.59,14.53,45.41,44.68Zm268.63-75.19-38.5,61.74c-13.44-21.42-27.25-43.22-40.68-61.74H414.19l64.29,91.17L416,1228.39h48.68l37.77-59.57c11.63,18.53,26.89,42.5,39.23,59.57h50.5l-62.12-88.27,63.57-90.8ZM768.69,960c-15.25,0-26.88,12-26.88,27.24s11.63,27.25,26.88,27.25a27.25,27.25,0,0,0,0-54.49Zm-86.45,33.42H640.1v55.94H605.23v35.6H640.1v143.47h42.14V1084.92H746.9v143.47h42.86V1049.32H682.24Zm154.73,235h42.86V958.5H837Zm255-89.71c0-57.39-34.87-94.81-87.9-94.81-54.48,0-90.08,38.86-90.08,95.17,0,56.67,36.33,94.07,89.35,94.07,37.05,0,68.3-18.51,81.73-50.12l-36-14.17c-8,16.72-23.25,27.25-45.78,27.25-24,0-45.77-12-48.67-41.41H1092Zm-136.57-14.17c3.63-29.06,21.43-44.68,47.58-44.68,25.79,0,43.59,14.53,45.41,44.68Z"/></svg>